<svg width="26" height="24" viewBox="0 0 26 24" fill="none" xmlns="http://www.w3.org/2000/svg">
<path fill-rule="evenodd" clip-rule="evenodd" d="M3.60487 12.3539C2.7081 12.8719 1.51915 12.4917 0.949425 11.5051C0.379891 10.5185 0.645249 9.29883 1.54203 8.78106C2.43899 8.2631 3.62794 8.64322 4.19747 9.62983C4.76719 10.6164 4.50184 11.8361 3.60487 12.3539ZM9.60589 16.2921C8.70911 16.81 7.52016 16.4299 6.95044 15.4433C6.3809 14.4567 6.64626 13.237 7.54304 12.7192C8.44 12.2013 9.62895 12.5814 10.1985 13.568C10.7682 14.5546 10.5028 15.7743 9.60589 16.2921ZM3.60487 19.2926C2.7081 19.8105 1.51915 19.4304 0.949425 18.4438C0.379891 17.4572 0.645249 16.2375 1.54203 15.7197C2.43899 15.2018 3.62794 15.5819 4.19747 16.5685C4.76719 17.5551 4.50184 18.7748 3.60487 19.2926ZM9.60589 23.2307C8.70911 23.7487 7.52016 23.3686 6.95044 22.382C6.3809 21.3954 6.64626 20.1757 7.54304 19.6579C8.44 19.1399 9.62895 19.5201 10.1985 20.5067C10.7682 21.4933 10.5028 22.713 9.60589 23.2307ZM24.278 8.59353C23.381 8.07556 22.1923 8.45569 21.6225 9.44229C21.053 10.4289 21.3182 11.6486 22.2151 12.1664C23.1121 12.6843 24.3011 12.3042 24.8706 11.3176C25.4403 10.331 25.1749 9.1113 24.278 8.59353ZM21.2328 14.0319C20.3361 13.514 19.1471 13.8941 18.5774 14.8807C18.0079 15.8673 18.2732 17.087 19.17 17.6048C20.067 18.1228 21.2559 17.7426 21.8254 16.756C22.3952 15.7694 22.1298 14.5497 21.2328 14.0319ZM18.0448 19.2828C17.148 18.7649 15.9591 19.145 15.3894 20.1316C14.8198 21.1182 15.0852 22.3379 15.982 22.8557C16.8789 23.3736 18.0679 22.9935 18.6374 22.0069C19.2071 21.0203 18.9418 19.8006 18.0448 19.2828ZM13.1202 0.485596C11.9292 0.485596 10.9636 1.40919 10.9636 2.54844C10.9636 3.6877 11.9292 4.61129 13.1202 4.61129C14.3112 4.61129 15.2768 3.6877 15.2768 2.54844C15.2768 1.40919 14.3112 0.485596 13.1202 0.485596Z" fill="#2A5F9E"/>
</svg>
